<svg width="130" height="52" viewBox="0 0 130 52" fill="none" xmlns="http://www.w3.org/2000/svg">
<path d="M62.2788 6.46807C62.2788 5.87199 62.4737 5.37908 62.8749 4.98934C63.2761 4.59959 63.8263 4.40472 64.5141 4.40472C65.1904 4.40472 65.7406 4.59959 66.1418 4.98934C66.5431 5.37908 66.7494 5.87199 66.7494 6.46807C66.7494 7.07561 66.5431 7.56852 66.1304 7.95826C65.7177 8.348 65.179 8.54287 64.5026 8.54287C63.8263 8.54287 63.2876 8.348 62.8749 7.95826C62.4851 7.57998 62.2788 7.07561 62.2788 6.46807ZM66.5201 25.2789H62.5195V10.3311H66.5201V25.2789Z" fill="white"/>
<path d="M68.8013 17.7019C68.8013 15.4093 69.3515 13.5637 70.4405 12.1652C71.5295 10.7667 72.9967 10.0675 74.8537 10.0675C76.493 10.0675 77.7654 10.6292 78.6824 11.7526L78.8429 10.3426H82.4652V24.786C82.4652 26.0928 82.1672 27.2276 81.5711 28.202C80.975 29.1649 80.1382 29.91 79.0607 30.4144C77.9831 30.9187 76.7222 31.1709 75.2779 31.1709C74.1774 31.1709 73.1114 30.9531 72.0797 30.5175C71.0366 30.0819 70.2571 29.5203 69.7183 28.821L71.4836 26.3908C72.4809 27.5028 73.6845 28.0645 75.1059 28.0645C76.1605 28.0645 76.9859 27.7779 77.5819 27.2162C78.1666 26.6545 78.4646 25.8521 78.4646 24.809V24.0065C77.5476 25.0497 76.3325 25.5655 74.8308 25.5655C73.0311 25.5655 71.5868 24.8663 70.4749 23.4563C69.363 22.0578 68.8127 20.1894 68.8127 17.8738V17.7019H68.8013ZM72.7904 17.9885C72.7904 19.3411 73.0655 20.4071 73.6043 21.1752C74.143 21.9432 74.8881 22.3329 75.8396 22.3329C77.0546 22.3329 77.9258 21.8744 78.4531 20.9688V14.6756C77.9144 13.7586 77.0546 13.3115 75.874 13.3115C74.9111 13.3115 74.166 13.7013 73.6157 14.4922C73.0655 15.2603 72.7904 16.4409 72.7904 17.9885Z" fill="white"/>
<path d="M88.7697 10.3312L88.8957 12.0621C89.9618 10.7324 91.3947 10.0561 93.1944 10.0561C94.7763 10.0561 95.957 10.5261 96.725 11.4546C97.493 12.3831 97.8942 13.7701 97.9171 15.6271V25.279H93.928V15.7188C93.928 14.8706 93.7446 14.263 93.3778 13.8733C93.011 13.495 92.392 13.3001 91.5437 13.3001C90.4203 13.3001 89.5835 13.7816 89.0218 14.733V25.2675H85.0327V10.3312H88.7697Z" fill="white"/>
<path d="M100.485 6.46807C100.485 5.87199 100.68 5.37908 101.081 4.98934C101.482 4.59959 102.032 4.40472 102.72 4.40472C103.396 4.40472 103.947 4.59959 104.348 4.98934C104.749 5.37908 104.955 5.87199 104.955 6.46807C104.955 7.07561 104.749 7.56852 104.336 7.95826C103.924 8.348 103.385 8.54287 102.709 8.54287C102.032 8.54287 101.494 8.348 101.081 7.95826C100.691 7.57998 100.485 7.07561 100.485 6.46807ZM104.726 25.2789H100.726V10.3311H104.726V25.2789Z" fill="white"/>
<path d="M112.372 6.66296V10.3311H114.928V13.2542H112.372V20.7166C112.372 21.2668 112.475 21.6681 112.693 21.9088C112.899 22.1495 113.312 22.2641 113.908 22.2641C114.355 22.2641 114.745 22.2297 115.077 22.1724V25.1987C114.298 25.4394 113.484 25.554 112.659 25.554C109.862 25.554 108.429 24.1441 108.383 21.3127V13.2657H106.205V10.3426H108.383V6.67443H112.372V6.66296Z" fill="white"/>
<path d="M123.595 25.554C121.405 25.554 119.617 24.8777 118.242 23.5365C116.866 22.1954 116.178 20.4071 116.178 18.1604V17.7706C116.178 16.269 116.465 14.9278 117.049 13.7471C117.634 12.5664 118.448 11.6494 119.514 11.0075C120.58 10.3655 121.795 10.0446 123.148 10.0446C125.188 10.0446 126.804 10.6865 127.974 11.9818C129.143 13.2657 129.739 15.0998 129.739 17.4611V19.0889H120.225C120.351 20.0632 120.741 20.8427 121.394 21.4388C122.047 22.0234 122.861 22.3214 123.858 22.3214C125.394 22.3214 126.598 21.7598 127.458 20.6478L129.418 22.8488C128.822 23.697 128.008 24.3619 126.988 24.8319C125.979 25.3133 124.844 25.554 123.595 25.554ZM123.148 13.2771C122.357 13.2771 121.715 13.5408 121.222 14.0795C120.729 14.6183 120.42 15.3863 120.271 16.3836H125.819V16.0626C125.796 15.18 125.566 14.4922 125.096 13.9993C124.638 13.5179 123.985 13.2771 123.148 13.2771Z" fill="white"/>
<path opacity="0.5" d="M52.0157 0.35129L39.286 47.8829C39.2212 48.0986 38.9623 48.1634 38.8113 48.0123L30.2888 39.4899L36.6753 15.6701C36.74 15.4544 36.5458 15.2602 36.3301 15.3249L12.5103 21.7114L4.03104 13.2321C3.88001 13.081 3.94474 12.8221 4.1605 12.7574L51.6705 0.00607603C51.8863 -0.0370757 52.0804 0.157107 52.0157 0.35129Z" fill="#00B37E"/>
<path opacity="0.5" d="M30.2885 39.49L27.009 51.7882C26.9442 52.004 26.6853 52.0687 26.5343 51.9177L0.0823113 25.4873C-0.0687196 25.3362 -0.00399244 25.0773 0.211766 25.0126L12.51 21.7115L30.2885 39.49Z" fill="#00B37E"/>
<path d="M36.6752 15.6699L30.2887 39.4897L12.5103 21.7112L36.33 15.3247C36.5457 15.26 36.7399 15.4542 36.6752 15.6699Z" fill="#00B37E"/>
<path d="M67.6222 45.6314C67.6222 45.4246 67.5762 45.2334 67.4841 45.0576C67.3971 44.8767 67.2155 44.7139 66.9392 44.5691C66.668 44.4192 66.2587 44.29 65.7112 44.1814C65.2507 44.0832 64.8337 43.9669 64.4602 43.8325C64.0918 43.6981 63.7772 43.5353 63.5162 43.344C63.2604 43.1527 63.0634 42.9279 62.9253 42.6694C62.7871 42.411 62.718 42.1086 62.718 41.7622C62.718 41.4314 62.7897 41.1187 62.9329 40.824C63.0813 40.5294 63.2885 40.2683 63.5546 40.0409C63.8258 39.8134 64.1507 39.6351 64.5293 39.5059C64.9079 39.3766 65.33 39.312 65.7956 39.312C66.4608 39.312 67.0287 39.4309 67.4994 39.6687C67.9701 39.9065 68.3309 40.2244 68.5816 40.6224C68.8323 41.0153 68.9576 41.4521 68.9576 41.9328H67.5378C67.5378 41.7002 67.4687 41.4753 67.3306 41.2582C67.1975 41.0359 67.0006 40.8524 66.7396 40.7077C66.4838 40.563 66.1691 40.4906 65.7956 40.4906C65.4017 40.4906 65.0819 40.5526 64.8363 40.6767C64.5958 40.7956 64.4193 40.9481 64.3067 41.1342C64.1993 41.3203 64.1456 41.5167 64.1456 41.7235C64.1456 41.8785 64.1711 42.0181 64.2223 42.1422C64.2786 42.2611 64.3758 42.3722 64.5139 42.4756C64.6521 42.5738 64.8465 42.6668 65.0972 42.7547C65.3479 42.8426 65.6677 42.9305 66.0566 43.0183C66.7371 43.1734 67.2973 43.3595 67.7373 43.5766C68.1774 43.7937 68.5048 44.0599 68.7197 44.3753C68.9346 44.6906 69.042 45.0731 69.042 45.5228C69.042 45.8898 68.9653 46.2258 68.8118 46.5308C68.6634 46.8358 68.446 47.0994 68.1595 47.3217C67.878 47.5388 67.5404 47.7094 67.1464 47.8335C66.7575 47.9524 66.3201 48.0118 65.834 48.0118C65.1023 48.0118 64.4832 47.88 63.9767 47.6164C63.4702 47.3527 63.0864 47.0116 62.8255 46.5929C62.5646 46.1742 62.4341 45.7322 62.4341 45.267H63.8616C63.8821 45.6598 63.9946 45.9726 64.1993 46.2052C64.4039 46.4326 64.6546 46.5954 64.9514 46.6937C65.2482 46.7867 65.5424 46.8332 65.834 46.8332C66.2229 46.8332 66.5478 46.7815 66.8087 46.6782C67.0748 46.5748 67.2769 46.4326 67.415 46.2517C67.5531 46.0708 67.6222 45.864 67.6222 45.6314Z" fill="white"/>
<path d="M72.3268 35.9468V47.8567H70.907V35.9468H72.3268ZM71.9892 43.344L71.3982 43.3207C71.4033 42.747 71.4877 42.2171 71.6515 41.7312C71.8152 41.2401 72.0454 40.8137 72.3422 40.4518C72.639 40.09 72.992 39.8108 73.4013 39.6144C73.8158 39.4128 74.2737 39.312 74.7751 39.312C75.1844 39.312 75.5528 39.3689 75.8803 39.4826C76.2077 39.5911 76.4866 39.7669 76.7168 40.0099C76.9522 40.2528 77.1312 40.5681 77.254 40.9558C77.3768 41.3383 77.4382 41.8062 77.4382 42.3593V47.8567H76.0107V42.3438C76.0107 41.9044 75.9468 41.5529 75.8189 41.2892C75.6909 41.0204 75.5042 40.8266 75.2586 40.7077C75.013 40.5836 74.7111 40.5216 74.353 40.5216C73.9999 40.5216 73.6776 40.5966 73.386 40.7465C73.0994 40.8964 72.8513 41.1031 72.6415 41.3668C72.4369 41.6304 72.2757 41.9328 72.158 42.274C72.0454 42.61 71.9892 42.9667 71.9892 43.344Z" fill="white"/>
<path d="M79.1881 43.755V43.5766C79.1881 42.9718 79.2751 42.411 79.449 41.894C79.623 41.3719 79.8737 40.9196 80.2011 40.5371C80.5286 40.1494 80.9251 39.8496 81.3907 39.6377C81.8563 39.4206 82.3782 39.312 82.9564 39.312C83.5397 39.312 84.0641 39.4206 84.5297 39.6377C85.0004 39.8496 85.3995 40.1494 85.727 40.5371C86.0595 40.9196 86.3128 41.3719 86.4868 41.894C86.6607 42.411 86.7477 42.9718 86.7477 43.5766V43.755C86.7477 44.3598 86.6607 44.9206 86.4868 45.4375C86.3128 45.9545 86.0595 46.4068 85.727 46.7945C85.3995 47.177 85.003 47.4768 84.5374 47.6939C84.0769 47.9058 83.555 48.0118 82.9717 48.0118C82.3885 48.0118 81.864 47.9058 81.3984 47.6939C80.9328 47.4768 80.5337 47.177 80.2011 46.7945C79.8737 46.4068 79.623 45.9545 79.449 45.4375C79.2751 44.9206 79.1881 44.3598 79.1881 43.755ZM80.6079 43.5766V43.755C80.6079 44.1737 80.6565 44.5691 80.7537 44.9413C80.8509 45.3083 80.9968 45.634 81.1912 45.9183C81.3907 46.2026 81.6389 46.4274 81.9356 46.5929C82.2324 46.7531 82.5778 46.8332 82.9717 46.8332C83.3606 46.8332 83.7008 46.7531 83.9925 46.5929C84.2892 46.4274 84.5348 46.2026 84.7293 45.9183C84.9237 45.634 85.0695 45.3083 85.1667 44.9413C85.269 44.5691 85.3202 44.1737 85.3202 43.755V43.5766C85.3202 43.1631 85.269 42.7728 85.1667 42.4058C85.0695 42.0336 84.9211 41.7054 84.7216 41.4211C84.5272 41.1316 84.2816 40.9041 83.9848 40.7387C83.6932 40.5733 83.3504 40.4906 82.9564 40.4906C82.5675 40.4906 82.2247 40.5733 81.928 40.7387C81.6363 40.9041 81.3907 41.1316 81.1912 41.4211C80.9968 41.7054 80.8509 42.0336 80.7537 42.4058C80.6565 42.7728 80.6079 43.1631 80.6079 43.5766Z" fill="white"/>
<path d="M89.9481 41.0799V51.0823H88.5206V39.4671H89.8253L89.9481 41.0799ZM95.543 43.5921V43.755C95.543 44.3649 95.4714 44.931 95.3281 45.453C95.1848 45.97 94.9751 46.4197 94.6988 46.8022C94.4276 47.1847 94.0925 47.482 93.6934 47.6939C93.2943 47.9058 92.8364 48.0118 92.3196 48.0118C91.7926 48.0118 91.327 47.9239 90.9228 47.7482C90.5186 47.5724 90.1758 47.3166 89.8944 46.9806C89.613 46.6446 89.3878 46.2414 89.219 45.771C89.0553 45.3006 88.9427 44.7707 88.8813 44.1814V43.313C88.9427 42.6927 89.0578 42.137 89.2267 41.6459C89.3955 41.1548 89.6181 40.7361 89.8944 40.3898C90.1758 40.0383 90.516 39.7721 90.9151 39.5911C91.3142 39.4051 91.7747 39.312 92.2966 39.312C92.8185 39.312 93.2815 39.4154 93.6857 39.6222C94.0899 39.8238 94.4302 40.1132 94.7064 40.4906C94.9827 40.8679 95.19 41.3203 95.3281 41.8475C95.4714 42.3696 95.543 42.9511 95.543 43.5921ZM94.1155 43.755V43.5921C94.1155 43.1734 94.072 42.7806 93.985 42.4135C93.898 42.0414 93.7624 41.7157 93.5783 41.4366C93.3992 41.1523 93.1689 40.93 92.8875 40.7697C92.6061 40.6043 92.271 40.5216 91.8821 40.5216C91.524 40.5216 91.2119 40.5836 90.9458 40.7077C90.6849 40.8318 90.4623 40.9998 90.2781 41.2117C90.0939 41.4185 89.943 41.6563 89.8253 41.9251C89.7127 42.1887 89.6283 42.4627 89.572 42.747V44.7552C89.6744 45.117 89.8176 45.4582 90.0018 45.7787C90.186 46.094 90.4316 46.3499 90.7386 46.5463C91.0456 46.7376 91.4319 46.8332 91.8975 46.8332C92.2812 46.8332 92.6112 46.7531 92.8875 46.5929C93.1689 46.4274 93.3992 46.2026 93.5783 45.9183C93.7624 45.634 93.898 45.3083 93.985 44.9413C94.072 44.5691 94.1155 44.1737 94.1155 43.755Z" fill="white"/>
</svg>
